<svg width="106" height="43" viewBox="0 0 106 43" fill="none" xmlns="http://www.w3.org/2000/svg">
    <path d="M0.460987 20.032L5.59198 5.8015H8.7788L13.9098 20.032H11.184L10.0014 16.6648H4.36936L3.18683 20.032H0.460987ZM5.13099 14.44H9.23979L7.19541 8.42712L5.13099 14.44ZM23.9739 5.8015V20.032H21.5286L21.4685 18.5087C20.8672 19.591 19.6646 20.2725 18.2015 20.2725C15.4356 20.2725 13.7119 18.1279 13.7119 14.7206C13.7119 11.3133 15.4356 9.16871 18.2015 9.16871C19.5844 9.16871 20.787 9.81009 21.4084 10.8523V5.8015H23.9739ZM16.3575 14.7206C16.3575 16.8452 17.3998 18.2081 18.9631 18.2081C20.5465 18.2081 21.5687 16.8452 21.5687 14.7206C21.5687 12.556 20.5465 11.173 18.9631 11.173C17.3797 11.173 16.3575 12.556 16.3575 14.7206ZM34.3655 20.032H32.0004L31.9603 18.3484C31.3791 19.7313 30.1966 20.2725 28.8136 20.2725C26.5087 20.2725 25.2259 18.629 25.2259 16.2439V9.40923H27.7914V15.4021C27.7914 17.2059 28.2724 18.188 29.6153 18.188C30.9983 18.188 31.8 17.2059 31.8 15.4021V9.40923H34.3655V20.032ZM35.9825 5.8015H38.548V17.2661C38.548 17.7671 38.8286 18.0477 39.3297 18.0477H40.1314V20.032H38.6683C37.0649 20.032 35.9825 19.0298 35.9825 17.3663V5.8015ZM41.3647 7.00408H43.9302V9.40923H46.7362V11.3935H43.9302V16.765C43.9302 17.5867 44.3511 18.0477 45.1328 18.0477H46.7362V20.032H44.7119C42.5272 20.032 41.3647 18.9296 41.3647 16.765V11.3935H39.6811V9.40923H41.3647V7.00408ZM51.3068 20.032V5.8015H56.3977C60.1056 5.8015 61.9496 7.06421 61.9496 9.74996C61.9496 11.4135 60.9073 12.4958 59.1035 12.6762C61.3082 12.8566 62.5509 14.0592 62.5509 16.0034C62.5509 18.629 60.6869 20.032 57.1994 20.032H51.3068ZM53.9124 17.8273H57.2395C58.863 17.8273 59.8851 17.1458 59.8851 15.823C59.8851 14.5202 58.883 13.8187 57.2395 13.8187H53.9124V17.8273ZM53.9124 11.7743H56.558C58.2617 11.7743 59.2839 11.1329 59.2839 9.9103C59.2839 8.62755 58.3218 8.00622 56.558 8.00622H53.9124V11.7743ZM63.8399 9.40923H66.4054V20.032H63.8399V9.40923ZM63.7998 7.94609V5.82154H66.4655V7.94609H63.7998ZM67.4719 5.8015H70.0374V10.8523C70.6587 9.81009 71.8613 9.16871 73.2442 9.16871C76.0102 9.16871 77.7338 11.3133 77.7338 14.7206C77.7338 18.1279 76.0102 20.2725 73.2442 20.2725C71.7811 20.2725 70.5785 19.591 69.9772 18.5087L69.9171 20.032H67.4719V5.8015ZM69.877 14.7206C69.877 16.8452 70.8992 18.2081 72.4826 18.2081C74.0459 18.2081 75.0882 16.8452 75.0882 14.7206C75.0882 12.556 74.066 11.173 72.4826 11.173C70.8992 11.173 69.877 12.556 69.877 14.7206ZM78.757 5.8015H81.3225V17.2661C81.3225 17.7671 81.6031 18.0477 82.1041 18.0477H82.9059V20.032H81.4427C79.8393 20.032 78.757 19.0298 78.757 17.3663V5.8015ZM83.0996 14.7206C83.0996 11.3534 85.184 9.16871 88.3708 9.16871C91.1167 9.16871 93.3214 11.0527 93.3615 14.8008V15.4221H85.8053C85.9256 17.1859 86.8476 18.2482 88.3708 18.2482C89.3329 18.2482 90.2148 17.687 90.5956 16.765L93.2212 16.9654C92.5799 18.9898 90.6557 20.2725 88.3708 20.2725C85.184 20.2725 83.0996 18.0878 83.0996 14.7206ZM85.8254 13.7185H90.7159C90.5154 11.8946 89.5133 11.193 88.3708 11.193C86.9478 11.193 86.0258 12.1351 85.8254 13.7185Z" fill="#3193D4"/>
    <path d="M3.70794 33.1776C4.00859 34.8412 5.19112 35.9436 7.13528 35.9436C8.6385 35.9436 9.66069 35.3423 9.66069 34.1798C9.64065 32.9972 8.6385 32.3158 6.21331 31.7145C3.36721 31.033 1.36292 29.8104 1.36292 27.5255C1.36292 25.0001 3.44738 23.4167 6.49391 23.4167C9.64065 23.4167 11.7652 25.3609 12.0658 28.1469L9.44022 28.2671C9.23979 26.6837 8.11739 25.6615 6.45382 25.6615C5.01073 25.6615 3.98854 26.4031 4.02863 27.5656C4.04867 28.9285 5.69219 29.3494 7.31567 29.7703C10.282 30.4718 12.3264 31.8147 12.3264 34.0395C12.3264 36.7252 9.94129 38.2084 7.01503 38.2084C3.66786 38.2084 1.30279 36.3043 1.06228 33.338L3.70794 33.1776ZM14.1055 24.94H16.671V27.3451H19.477V29.3294H16.671V34.7009C16.671 35.5227 17.0919 35.9836 17.8736 35.9836H19.477V37.9679H17.4527C15.268 37.9679 14.1055 36.8655 14.1055 34.7009V29.3294H12.4219V27.3451H14.1055V24.94ZM29.4526 37.9679H27.0876L27.0475 36.2843C26.4662 37.6673 25.2837 38.2084 23.9007 38.2084C21.5958 38.2084 20.313 36.5649 20.313 34.1798V27.3451H22.8785V33.338C22.8785 35.1418 23.3596 36.1239 24.7024 36.1239C26.0854 36.1239 26.8871 35.1418 26.8871 33.338V27.3451H29.4526V37.9679ZM40.496 23.7374V37.9679H38.0507L37.9906 36.4446C37.3893 37.527 36.1867 38.2084 34.7236 38.2084C31.9577 38.2084 30.234 36.0638 30.234 32.6565C30.234 29.2492 31.9577 27.1046 34.7236 27.1046C36.1066 27.1046 37.3091 27.746 37.9305 28.7882V23.7374H40.496ZM32.8796 32.6565C32.8796 34.7811 33.9219 36.144 35.4852 36.144C37.0686 36.144 38.0908 34.7811 38.0908 32.6565C38.0908 30.4919 37.0686 29.1089 35.4852 29.1089C33.9018 29.1089 32.8796 30.4919 32.8796 32.6565ZM41.1383 27.3451H43.6236L46.4697 35.2821L49.2156 27.3451H51.7009L47.4718 39.0903C47.0109 40.3931 46.149 40.9743 44.726 40.9743H42.9822V39.0101H44.285C44.9063 39.0101 45.207 38.8097 45.4275 38.3086L45.7281 37.527H44.9865L41.1383 27.3451ZM68.0487 37.9679H66.3852L66.2248 35.8033C65.5834 37.3065 63.8798 38.2886 61.9356 38.2886C57.887 38.2886 55.3215 35.0617 55.3215 30.8727C55.3215 26.6637 57.8669 23.4167 62.0559 23.4167C65.2227 23.4167 67.3472 25.3008 67.9886 28.3072L65.2828 28.4475C64.8619 26.7238 63.7595 25.6816 62.0158 25.6816C59.2499 25.6816 58.0273 27.9865 58.0273 30.8727C58.0273 33.7388 59.2699 36.0237 62.0158 36.0237C64.0602 36.0237 65.2227 34.6207 65.4431 32.6966H61.9958V30.6322H68.0487V37.9679ZM78.3425 37.9679H75.9774L75.9373 36.2843C75.3561 37.6673 74.1736 38.2084 72.7906 38.2084C70.4857 38.2084 69.2029 36.5649 69.2029 34.1798V27.3451H71.7684V33.338C71.7684 35.1418 72.2494 36.1239 73.5923 36.1239C74.9753 36.1239 75.777 35.1418 75.777 33.338V27.3451H78.3425V37.9679ZM79.7442 27.3451H82.3097V37.9679H79.7442V27.3451ZM79.7042 25.882V23.7575H82.3699V25.882H79.7042ZM93.5463 23.7374V37.9679H91.1011L91.0409 36.4446C90.4397 37.527 89.2371 38.2084 87.7739 38.2084C85.008 38.2084 83.2843 36.0638 83.2843 32.6565C83.2843 29.2492 85.008 27.1046 87.7739 27.1046C89.1569 27.1046 90.3595 27.746 90.9808 28.7882V23.7374H93.5463ZM85.93 32.6565C85.93 34.7811 86.9722 36.144 88.5356 36.144C90.119 36.144 91.1412 34.7811 91.1412 32.6565C91.1412 30.4919 90.119 29.1089 88.5356 29.1089C86.9522 29.1089 85.93 30.4919 85.93 32.6565ZM94.5107 32.6565C94.5107 29.2893 96.5952 27.1046 99.782 27.1046C102.528 27.1046 104.733 28.9887 104.773 32.7367V33.358H97.2165C97.3368 35.1218 98.2587 36.1841 99.782 36.1841C100.744 36.1841 101.626 35.6229 102.007 34.7009L104.632 34.9013C103.991 36.9257 102.067 38.2084 99.782 38.2084C96.5952 38.2084 94.5107 36.0237 94.5107 32.6565ZM97.2366 31.6544H102.127C101.927 29.8305 100.924 29.129 99.782 29.129C98.359 29.129 97.437 30.071 97.2366 31.6544Z" fill="#3193D4"/>
</svg>
