<svg height="15" viewBox="0 0 9 15" width="9" xmlns="http://www.w3.org/2000/svg" xmlns:xlink="http://www.w3.org/1999/xlink"><mask id="a" fill="#fff"><path d="m4.49999908 0v4.88899873l-4.49999908 2.4443346v-4.88883174z" fill="#fff" fill-rule="evenodd"/></mask><mask id="b" fill="#fff"><path d="m0 0 2.50632656 1.3615746c1.17818145.63993674 1.93796782 1.92439614 1.99073549 3.34615999l.00293795.15851303v2.46708571l-2.5063238-1.36140952c-1.17818619-.64009592-1.93796987-1.92456101-1.99073734-3.34617704l-.00293886-.15849598z" fill="#fff" fill-rule="evenodd"/></mask><mask id="c" fill="#fff"><path d="m2.5 0c1.38068125 0 2.5 1.119225 2.5 2.5s-1.11931875 2.5-2.5 2.5c-1.38085 0-2.5-1.119225-2.5-2.5s1.11915-2.5 2.5-2.5z" fill="#fff" fill-rule="evenodd"/></mask><g fill="#1a1919" fill-rule="evenodd"><path d="m-.61363652-.63492063h5.72727212v8.6031746h-5.72727212z" mask="url(#a)" transform="translate(4.500001 7.666667)"/><path d="m-.61363652-.63492063h5.72727396v8.6031746h-5.72727396z" mask="url(#b)" transform="translate(0 3)"/><path d="m-.625-.625h6.25v6.25h-6.25z" mask="url(#c)" transform="translate(4)"/></g></svg>