<svg width="1512" height="519" viewBox="0 0 1512 519" fill="none" xmlns="http://www.w3.org/2000/svg">
    <rect width="1512" height="423" transform="translate(0 95.2578)" fill="#E6EBE7"/>
    <g opacity="0.4" filter="url(#filter0_f_6177_8294)">
        <ellipse cx="833.741" cy="763.715" rx="425.621" ry="496.875" transform="rotate(51.4837 833.741 763.715)" fill="#E6EBE7"/>
    </g>
    <path d="M435.934 362.41L538.868 310.46V414.712L435.934 466.662V362.41ZM435.934 309.758C435.934 278.166 418.258 249.383 390.532 234.992L333 206.208V258.861C333 290.452 350.676 319.235 378.402 333.276L435.587 362.41V309.758H435.934ZM487.228 258.51C515.647 258.51 538.521 235.343 538.521 206.559C538.521 177.425 515.647 154.258 487.228 154.258C458.808 154.258 435.934 177.425 435.934 206.208C435.934 234.992 458.808 258.51 487.228 258.51ZM728.793 332.574C720.822 332.574 711.118 336.435 706.612 343.807V334.68H683.392V414.361H707.652V368.729C707.652 360.655 712.851 354.688 720.476 354.688C729.14 354.688 733.299 360.655 733.299 368.378V414.361H757.56V364.165C757.56 346.615 748.548 332.574 728.793 332.574ZM641.456 414.361H665.716V334.68H641.456V414.361ZM653.239 296.419C645.615 296.419 639.376 302.738 639.376 310.811C639.376 318.533 645.615 325.203 653.239 325.203C661.211 325.203 667.449 318.884 667.449 310.811C667.796 302.738 661.211 296.419 653.239 296.419ZM831.034 378.206C831.034 386.63 826.182 392.949 817.864 392.949C810.586 392.949 804.348 388.386 804.348 378.206V367.676L780.434 371.888V379.259C780.434 401.724 795.683 416.818 817.864 416.818C840.045 416.818 855.988 399.618 855.988 378.908V300.632H831.034V378.206ZM947.138 372.941C947.138 376.451 946.792 379.961 946.792 380.312H892.032C892.379 389.439 900.697 395.757 910.054 395.757C918.719 395.757 923.571 391.545 925.997 385.226L946.099 390.843C942.286 404.532 929.809 416.116 909.708 416.116C887.873 416.116 868.812 400.32 868.812 373.643C868.812 348.019 887.527 331.521 907.975 331.521C931.889 332.223 947.138 347.317 947.138 372.941ZM923.918 364.867C923.571 358.9 919.412 351.529 907.975 351.529C897.924 351.529 892.726 358.9 892.379 364.867H923.918ZM993.234 364.867L982.836 362.761C979.37 362.059 976.598 360.304 976.598 356.794C976.598 352.582 980.41 349.774 985.262 349.774C992.54 349.774 996.006 354.337 996.353 359.602L1016.45 355.741C1015.76 346.264 1007.79 331.872 984.916 331.872C967.24 331.872 954.763 343.807 954.763 358.198C954.763 369.431 961.348 378.908 978.331 382.769L987.342 384.875C993.234 386.279 994.966 388.737 994.966 391.545C994.966 395.055 991.847 398.565 985.609 398.565C977.291 398.565 973.479 393.3 973.132 387.684L952.684 391.545C953.377 400.32 961.348 416.467 985.955 416.467C1007.1 416.467 1017.49 403.128 1017.49 389.439C1017.49 378.206 1009.87 368.027 993.234 364.867ZM1102.75 334.68H1078.49V379.961C1078.49 388.035 1073.29 393.651 1065.32 393.651C1056.66 393.651 1052.5 387.684 1052.5 379.961V334.68H1028.24V385.226C1028.24 402.075 1038.98 416.467 1058.04 416.467C1066.02 416.467 1075.03 413.659 1079.19 406.638C1079.19 408.745 1079.53 413.308 1079.88 414.712H1103.1C1103.1 413.308 1102.41 407.691 1102.41 400.32V334.68H1102.75ZM1154.74 364.867L1144.34 362.761C1140.88 362.059 1138.1 360.304 1138.1 356.794C1138.1 352.582 1141.92 349.774 1146.77 349.774C1154.05 349.774 1157.51 354.337 1157.86 359.602L1177.96 355.741C1177.27 346.264 1169.3 331.872 1146.42 331.872C1128.75 331.872 1116.27 343.807 1116.27 358.198C1116.27 369.431 1122.85 378.908 1139.84 382.769L1148.85 384.875C1154.74 386.279 1156.47 388.737 1156.47 391.545C1156.47 395.055 1153.35 398.565 1147.11 398.565C1138.8 398.565 1134.98 393.3 1134.64 387.684L1114.19 391.545C1114.88 400.32 1122.85 416.467 1147.46 416.467C1168.6 416.467 1179 403.128 1179 389.439C1179 378.206 1171.03 368.027 1154.74 364.867ZM725.328 286.24H752.708L710.771 172.511H681.659L639.376 286.24H665.716L673.687 263.073H717.01L725.328 286.24ZM695.868 200.592L709.385 239.906H682.005L695.868 200.592ZM784.939 286.24V172.511H760.679V286.24H784.939ZM826.529 286.24V206.559H802.268V286.24H826.529ZM921.145 206.559H895.845L878.862 256.052L860.494 206.559H834.154L866.385 286.24H890.646L921.145 206.559ZM978.331 257.457C976.251 263.775 971.052 267.987 962.388 267.987C953.03 267.987 945.059 261.669 944.366 252.542H999.125C999.125 252.191 999.472 248.33 999.472 244.82C999.472 219.196 984.569 203.751 959.962 203.751C939.514 203.751 920.799 220.249 920.799 245.873C920.799 272.55 940.207 288.346 962.041 288.346C982.143 288.346 994.62 276.762 998.432 263.073L978.331 257.457ZM945.059 236.747C945.406 230.779 950.604 223.408 960.655 223.408C972.092 223.408 976.251 230.779 976.598 236.747H945.059ZM800.189 182.69C800.189 190.412 806.427 197.082 814.052 197.082C822.023 197.082 828.262 190.763 828.262 182.69C828.262 174.968 822.023 168.298 814.052 168.298C806.427 168.649 800.189 174.968 800.189 182.69Z" fill="#AABEBE" fill-opacity="0.17"/>
    <path d="M871.5 110.758L1519.5 36.2578V140.258H-21V49.7578L234.5 82.7578L404.5 100.258L871.5 110.758Z" fill="#E6EBE7"/>
    <path fill-rule="evenodd" clip-rule="evenodd" d="M3292.48 -859.645C2493.96 -80.24 1119.8 258.587 -273.969 3.96289L-289.161 1.11157C1063.13 314.489 2422.14 56.5896 3252.23 -660L4957.87 -2184.6L4673.32 -2254.79L3292.48 -859.645ZM-2476.88 -548.807L-972.127 -2043.55C-864.006 -2151.56 -744.614 -2251.11 -615.455 -2341.82C-728.218 -2268.77 -834.078 -2188.85 -932.077 -2102.25L-2650.28 -592.464L-2476.88 -548.807Z" fill="#AABEBE"/>
    <defs>
        <filter id="filter0_f_6177_8294" x="-36.83" y="-90.8672" width="1741.14" height="1709.17" filterUnits="userSpaceOnUse" color-interpolation-filters="sRGB">
            <feFlood flood-opacity="0" result="BackgroundImageFix"/>
            <feBlend mode="normal" in="SourceGraphic" in2="BackgroundImageFix" result="shape"/>
            <feGaussianBlur stdDeviation="200" result="effect1_foregroundBlur_6177_8294"/>
        </filter>
    </defs>
</svg>
