<svg xmlns="http://www.w3.org/2000/svg" viewBox="0 0 244.1 88.95"><defs><style>.cls-1{fill:#f4793b;}</style></defs><g id="Layer_2" data-name="Layer 2"><g id="Layer_1-2" data-name="Layer 1"><polygon class="cls-1" points="29.65 88.95 59.3 74.13 59.3 44.48 29.65 59.3 29.65 88.95"/><path class="cls-1" d="M29.65,44.34A23.77,23.77,0,0,0,16.52,23.08L0,14.83v15A23.78,23.78,0,0,0,13.14,51.05L29.65,59.3Z"/><path class="cls-1" d="M44.48,29.65A14.83,14.83,0,1,0,29.65,14.83,14.82,14.82,0,0,0,44.48,29.65Z"/><path class="cls-1" d="M114.2,50.77c-2.33,0-5.12,1-6.35,3.2v-2.6h-6.73V74.09h7v-13a3.69,3.69,0,0,1,3.75-4c2.51,0,3.7,1.69,3.7,3.93V74.09h7V59.83C122.48,54.84,119.92,50.77,114.2,50.77Z"/><rect class="cls-1" x="89.01" y="51.36" width="6.95" height="22.73"/><path class="cls-1" d="M92.44,40.51a4.08,4.08,0,1,0,4.11,4.07A4.07,4.07,0,0,0,92.44,40.51Z"/><path class="cls-1" d="M143.71,63.76c0,2.42-1.41,4.16-3.79,4.16-2.11,0-3.93-1.33-3.93-4.21v-3l-6.86,1.19v2.15c0,6.45,4.43,10.7,10.84,10.7a10.72,10.72,0,0,0,11-10.84V41.66h-7.23Z"/><path class="cls-1" d="M165.8,50.68c-5.89,0-11.34,4.66-11.34,12,0,7.64,5.58,12.12,11.85,12.12,5.76,0,9.37-3.29,10.47-7.23L171,65.91a4.38,4.38,0,0,1-4.57,3,4.92,4.92,0,0,1-5.17-4.39h15.82a13.81,13.81,0,0,0,.14-2.15C177.19,55,172.85,50.68,165.8,50.68ZM161.37,60a4.33,4.33,0,0,1,4.53-3.84c3.29,0,4.48,2.1,4.57,3.84Z"/><path class="cls-1" d="M190.55,60l-3-.59c-1-.19-1.78-.73-1.78-1.69a2.21,2.21,0,0,1,2.47-2,3,3,0,0,1,3.24,2.79l5.76-1c-.22-2.66-2.51-6.77-9.1-6.77-5.07,0-8.73,3.38-8.73,7.54,0,3.21,1.92,6,6.77,7l2.6.6c1.7.36,2.24,1.05,2.24,1.87,0,1-.86,2-2.65,2a3.23,3.23,0,0,1-3.56-3.07l-5.9,1c.18,2.52,2.47,7.14,9.6,7.14,6.08,0,9-3.8,9-7.68C197.54,63.76,195.26,60.92,190.55,60Z"/><path class="cls-1" d="M222.1,51.36h-6.95v13a3.62,3.62,0,0,1-3.79,3.88c-2.47,0-3.66-1.73-3.66-3.93V51.36h-6.95V65.72c0,4.85,3.11,8.88,8.64,8.88,2.29,0,4.89-.83,6.08-2.79a15.2,15.2,0,0,0,.19,2.28h6.67A36.84,36.84,0,0,1,222.1,70Z"/><path class="cls-1" d="M237.11,60l-3-.59c-1-.19-1.79-.73-1.79-1.69a2.22,2.22,0,0,1,2.47-2A3,3,0,0,1,238,58.5l5.76-1c-.23-2.66-2.51-6.77-9.1-6.77-5.07,0-8.73,3.38-8.73,7.54,0,3.21,1.92,6,6.76,7l2.61.6c1.69.36,2.24,1.05,2.24,1.87,0,1-.87,2-2.65,2a3.24,3.24,0,0,1-3.57-3.07l-5.9,1c.19,2.52,2.47,7.14,9.61,7.14,6.08,0,9-3.8,9-7.68C244.1,63.76,241.82,60.92,237.11,60Z"/><path class="cls-1" d="M110.87,31H98.33L96,37.61H88.4L100.62,5.16H109l12.08,32.45h-7.87Zm-10.16-6.59h7.87l-3.89-11.21Z"/><path class="cls-1" d="M123.46,37.61V5.16h7V37.61Z"/><path class="cls-1" d="M135.4,37.61V14.87h7V37.61Z"/><path class="cls-1" d="M161,37.61h-7l-9.34-22.74h7.56L157.51,29l4.85-14.14h7.32Z"/><path class="cls-1" d="M192.06,31.07C191,35,187.35,38.3,181.58,38.3c-6.27,0-11.85-4.49-11.85-12.13,0-7.32,5.44-12,11.35-12,7,0,11.39,4.35,11.39,11.67a15.92,15.92,0,0,1-.13,2.15H176.5a4.92,4.92,0,0,0,5.17,4.39,4.4,4.4,0,0,0,4.58-3Zm-6.31-7.56c-.1-1.73-1.29-3.84-4.58-3.84a4.33,4.33,0,0,0-4.53,3.84Z"/><path class="cls-1" d="M138.84,4.06a4.08,4.08,0,1,1-4,4.08A4.09,4.09,0,0,1,138.84,4.06Z"/></g></g></svg>