<svg xmlns="http://www.w3.org/2000/svg" viewBox="0 0 200 200" fill="currentColor">
    <path d="M5.541 112.743h3.99c1.182 0 1.847-.739 1.847-1.847v-41.67c0-35.019 26.375-57.774 65.015-57.774 38.566 0 65.016 22.755 65.016 57.775v41.669c0 1.108.665 1.847 1.847 1.847h3.99c3.176 0 5.541-2.069 5.541-5.098V66.493C152.787 27.263 121.83 0 78.905 0h-5.024C30.956 0 0 27.262 0 66.493v41.152c0 3.03 2.29 5.098 5.541 5.098ZM26.82 142h6.945c9.013 0 14.111-4.802 14.111-13.299V96.785c0-8.497-5.098-13.3-14.111-13.3h-6.945c-5.024 0-7.758 2.66-7.758 7.537v43.442c0 4.95 2.734 7.536 7.758 7.536Zm92.278 0h6.945c5.024 0 7.831-2.586 7.831-7.536V91.022c0-4.876-2.807-7.536-7.831-7.536h-6.945c-9.014 0-14.112 4.802-14.112 13.299V128.7c0 8.497 5.098 13.299 14.112 13.299Z"/>
</svg>
