<svg xmlns="http://www.w3.org/2000/svg" viewBox="0 0 1000 1000"><g id="Layer_3" data-name="Layer 3"><path d="M809.68,159.76H588.59a40,40,0,0,0-40,40V420.85a40,40,0,0,0,40,40H809.68a40,40,0,0,0,40-40V199.76A40,40,0,0,0,809.68,159.76Zm0,261.09H588.59V199.76H809.68Z"/><path d="M410.78,558.67H189.68a40,40,0,0,0-40,40V819.76a40,40,0,0,0,40,40h221.1a40,40,0,0,0,40-40V598.67A40,40,0,0,0,410.78,558.67Zm0,261.09H189.68V598.67h221.1Z"/><path d="M809.68,558.67H588.59a40,40,0,0,0-40,40V819.76a40,40,0,0,0,40,40H809.68a40,40,0,0,0,40-40V598.67A40,40,0,0,0,809.68,558.67Zm0,261.09H588.59V598.67H809.68Z"/><path d="M450.78,310.31h0A150.55,150.55,0,0,0,300.23,159.76h0A150.55,150.55,0,0,0,149.68,310.31h0A150.54,150.54,0,0,0,300.23,460.85h0a149.91,149.91,0,0,0,88.87-29l71.66,71.66,28.29-28.28L418,404.12A149.88,149.88,0,0,0,450.78,310.31ZM300.23,420.85a110.54,110.54,0,1,1,78.17-32.37A109.81,109.81,0,0,1,300.23,420.85Z"/></g></svg>