<svg xmlns="http://www.w3.org/2000/svg" viewBox="0 0 701 624.89"><g id="Layer_2" data-name="Layer 2"><g id="Layer_3" data-name="Layer 3"><path d="M686.8,0H474A135.45,135.45,0,0,0,350.5,80.08,135.43,135.43,0,0,0,227,0H14.2A14.2,14.2,0,0,0,0,14.2V499.05a14.2,14.2,0,0,0,14.2,14.2H225.3a111.81,111.81,0,0,1,110.92,98.87,14.23,14.23,0,0,0,14.07,12.77h.43a14.24,14.24,0,0,0,14.07-12.77A111.79,111.79,0,0,1,475.7,513.25H686.8a14.2,14.2,0,0,0,14.2-14.2V14.2A14.2,14.2,0,0,0,686.8,0ZM225.3,473.25H40V40H227a95.56,95.56,0,0,1,87,56.46h0a188,188,0,0,1,16.49,77V515.76c-1.29-1.24-2.59-2.47-3.92-3.67A151.33,151.33,0,0,0,225.3,473.25Zm435.7,0H475.7a151.3,151.3,0,0,0-101.27,38.84c-1.34,1.2-2.64,2.43-3.93,3.67V173.46a188,188,0,0,1,16.49-77h0A95.56,95.56,0,0,1,474,40H661Z"/></g></g></svg>