<svg xmlns="http://www.w3.org/2000/svg" viewBox="0 0 148 133"><defs><style>.cls-1{fill-rule:evenodd;}</style></defs><g id="Layer_2" data-name="Layer 2"><g id="Layer_1-2" data-name="Layer 1"><path class="cls-1" d="M76.92,124.31c0,.54.62.55.73,0a21.61,21.61,0,0,1,4-9.25H77.29a.37.37,0,0,0-.37.36v8.88Zm31.61-55.5c0,5.78-1.61,10.75-12.15,21.3l-8.33,8.34c-3.8,3.79-7.21,7.26-9.22,10.73h8.23l1-1,12-12c10-10,11.35-20.52,9.23-27.4-.18-.58-.69-.62-.69,0ZM98,104.08l-10,10c-6,6.06-11.13,11.27-11.13,17v1.58c0,.43.54.5.7.05,1.87-5.1,8.11-10.55,19.55-8.62,0,0,49.85,8.62,50.26,8.66a.48.48,0,0,0,.42-.81c-.19-.23-23.2-23.26-23.2-23.26ZM62,115.06a.37.37,0,0,1-.37-.36v-5.16a.37.37,0,0,1,.37-.37H70.7a.36.36,0,0,0,.36-.36c0-4.64-3.51-7.79-17.5-5.35l-30.22,5.2s-23,23-23.2,23.26a.48.48,0,0,0,.41.81c.42,0,50.27-8.66,50.27-8.66,11.44-1.93,17.68,3.52,19.55,8.62.16.45.7.39.7-.05V115.43a.37.37,0,0,0-.36-.37ZM48.05,42.9c-10,10-11.35,20.52-9.22,27.4.18.58.68.62.68,0,0-5.78,1.61-10.75,12.15-21.3L74.38,26.28C80.43,20.22,85.5,15,85.5,9.3V.41c0-.54-.62-.55-.73,0-1.49,7.26-4.39,10.12-10.38,16.11L48.05,42.9ZM85.53,16c0-.54-.62-.54-.74,0-1.49,7.26-4.38,10.17-10.37,16.16L50.56,56C39,67.59,37,78.8,42.87,86c.39.48.81.2.56-.38-3.9-8.82,5.44-18.17,9.88-22.62L74.4,41.9c6-6,11.13-11.27,11.13-17V16ZM51.21,71c-11.58,11.59-6.25,22.79.5,25.87.6.27.83-.21.38-.6-5.42-4.7-3.77-12.6,3-19.42L74.38,57.56c6-6.05,11.12-11.27,11.12-17v-8.9c0-.54-.62-.54-.73,0C83.28,39,80.38,41.8,74.4,47.79ZM76.9,108.75c0,.54.62.54.73,0C79.13,101.49,82,98.58,88,92.59l9.48-9.47c11.58-11.59,13.59-22.81,7.7-30-.4-.49-.82-.2-.56.38,3.89,8.82-5.45,18.17-9.89,22.62L88,82.82c-6,6.05-11.13,11.27-11.13,17v9ZM88,76.93c-6,6-8.88,8.84-10.37,16.1-.11.54-.73.54-.73,0v-8.9c0-5.7,5.07-10.92,11.12-17l4.86-4.87c6.82-6.82,8.46-14.72,3-19.42-.45-.39-.21-.87.38-.6,6.75,3.08,12.08,14.28.5,25.87L88,76.93Zm56.36,39.42c.5,0,.8-.28.8-.68s-.25-.64-.8-.64h-.47v1.32Zm-1.2-1.93h1.22c1,0,1.51.41,1.51,1.23a1.12,1.12,0,0,1-.74,1.09l1.1,1.85h-.82l-1-1.65h-.59v1.65h-.73v-4.17Zm4.27,2.08a2.92,2.92,0,0,0-3-3,2.87,2.87,0,0,0-3,3,3,3,0,1,0,5.93,0Zm-6.46,0a3.38,3.38,0,0,1,3.5-3.5,3.44,3.44,0,0,1,3.5,3.5,3.5,3.5,0,0,1-7,0Z"/></g></g></svg>