<svg width="101" height="35" viewBox="0 0 101 35" fill="none" xmlns="http://www.w3.org/2000/svg">
<path d="M25.8174 26.1117H21.393L15.2182 18.0583V10.8894L21.393 18.9894V9.02736H25.8174V26.1117ZM13.6137 20.3393H9.18925V9.02736H13.6137V20.3393ZM13.6137 26.1117H9.18925V21.8755H13.6137V26.1117ZM17.5033 0.741211C7.82788 0.741211 0 8.23599 0 17.4997C0 26.7634 7.82788 34.2582 17.5033 34.2582C27.1788 34.2582 35.0067 26.7634 35.0067 17.4997C35.0067 8.23599 27.1788 0.741211 17.5033 0.741211Z" fill="#2F557F"/>
<g clip-path="url(#clip0_6003_3365)">
<path d="M40.7582 23.1465V11.7256H43.838V23.1465H40.7582Z" fill="#1F1F1F"/>
<path d="M51.4091 23.1465V18.3343C51.4091 17.7569 51.3449 17.3077 51.1524 16.9869C50.96 16.6661 50.7033 16.5378 50.3183 16.5378C49.805 16.5378 49.4201 16.7303 49.2276 17.1794C49.0351 17.6285 48.9068 18.2702 48.9068 19.2968V23.1465H45.827V14.2921H48.1368L48.5218 15.3829H48.7143C48.9709 14.9979 49.3559 14.6771 49.805 14.4204C50.2542 14.1638 50.7675 14.0996 51.4091 14.0996C52.3715 14.0996 53.1415 14.3563 53.7189 14.9337C54.2964 15.5112 54.5531 16.2811 54.5531 17.3077V23.0823H51.4091V23.1465Z" fill="#1F1F1F"/>
<path d="M62.7658 11.7256H66.2306L62.5092 23.1465H58.9161L55.1305 11.7256H58.5953L60.1352 17.5002C60.456 18.7835 60.6485 19.6817 60.6485 20.195C60.7126 19.8101 60.7768 19.3609 60.8409 18.8476C60.9051 18.3343 61.0334 17.8852 61.0976 17.5644L62.7658 11.7256Z" fill="#1F1F1F"/>
<path d="M70.5938 23.2748C69.1181 23.2748 67.9632 22.8899 67.1932 22.1199C66.3591 21.35 65.9741 20.195 65.9741 18.7835C65.9741 17.3077 66.3591 16.1528 67.129 15.3187C67.899 14.5487 68.9898 14.0996 70.3372 14.0996C71.6846 14.0996 72.7112 14.4204 73.417 15.1262C74.1227 15.832 74.4436 16.8586 74.4436 18.1418V19.4893H68.9898C68.9898 20.0026 69.1822 20.3875 69.5031 20.6442C69.8239 20.9008 70.3372 21.0933 70.9146 21.0933C71.4279 21.0933 71.9412 21.0292 72.3904 20.965C72.8395 20.9008 73.3528 20.7083 73.8661 20.4517V22.6332C73.417 22.8899 72.9037 23.0182 72.3904 23.1465C71.8771 23.2107 71.2996 23.2748 70.5938 23.2748ZM70.4013 16.217C70.0164 16.217 69.7597 16.3453 69.5031 16.5378C69.2464 16.7944 69.1181 17.1152 69.0539 17.6285H71.6846C71.6846 17.1794 71.5563 16.8586 71.2996 16.6019C71.1071 16.3453 70.7863 16.217 70.4013 16.217Z" fill="#1F1F1F"/>
<path d="M81.1805 14.1641C81.4372 14.1641 81.6938 14.1641 81.9505 14.2282H82.143L81.8221 17.1155C81.5655 17.0514 81.2447 17.0514 80.7955 17.0514C80.1539 17.0514 79.6406 17.1797 79.3198 17.5005C78.999 17.8213 78.8707 18.2705 78.8707 18.7838V23.1468H75.855V14.2924H78.1007L78.614 15.704H78.7424C78.999 15.2548 79.3198 14.8698 79.8331 14.549C80.2822 14.2924 80.7314 14.1641 81.1805 14.1641Z" fill="#1F1F1F"/>
<path d="M89.8424 20.3872C89.8424 21.3497 89.5216 22.0555 88.8799 22.5046C88.2383 23.0179 87.34 23.2104 86.121 23.2104C85.4793 23.2104 84.9019 23.1462 84.3886 23.0821C83.8753 23.0179 83.4261 22.8896 82.9128 22.6971V20.2589C83.362 20.4514 83.8753 20.6439 84.4527 20.7722C85.0302 20.9005 85.5435 20.9647 85.9926 20.9647C86.6343 20.9647 86.9551 20.8364 86.9551 20.5156C86.9551 20.3872 86.8909 20.1947 86.6984 20.1306C86.5059 20.0023 85.9926 19.7456 85.0944 19.4248C84.2603 19.104 83.747 18.719 83.4261 18.2699C83.1053 17.8207 82.9128 17.3074 82.9128 16.6658C82.9128 15.8317 83.2337 15.1901 83.8753 14.7409C84.5169 14.2918 85.4152 14.0352 86.5701 14.0352C87.1476 14.0352 87.725 14.0993 88.2383 14.2276C88.7516 14.356 89.2649 14.5485 89.8424 14.8051L88.9441 16.8583C88.5591 16.6658 88.11 16.5375 87.6609 16.4092C87.2117 16.2808 86.8268 16.2167 86.5701 16.2167C86.0568 16.2167 85.8002 16.345 85.8002 16.6017C85.8002 16.73 85.8643 16.8583 86.0568 16.9866C86.2493 17.115 86.7626 17.3074 87.5967 17.6283C88.2383 17.8849 88.6875 18.1416 89.0083 18.3982C89.3291 18.6548 89.5216 18.9115 89.6499 19.2323C89.7782 19.5531 89.8424 19.9381 89.8424 20.3872Z" fill="#1F1F1F"/>
<path d="M95.4888 23.2748C94.0131 23.2748 92.8581 22.8899 92.0882 22.1199C91.2541 21.35 90.8049 20.195 90.8049 18.7835C90.8049 17.3077 91.1899 16.1528 91.9599 15.3187C92.7298 14.5487 93.8206 14.0996 95.168 14.0996C96.5154 14.0996 97.542 14.4204 98.2478 15.1262C98.9536 15.832 99.3385 16.7944 99.3385 18.1418V19.4893H93.8847C93.8847 20.0026 94.0772 20.3875 94.398 20.6442C94.7188 20.9008 95.2321 21.0933 95.8096 21.0933C96.3229 21.0933 96.8362 21.0292 97.2853 20.965C97.7345 20.8367 98.2478 20.7083 98.7611 20.4517V22.6332C98.3119 22.8899 97.7986 23.0182 97.2853 23.1465C96.772 23.2107 96.1946 23.2748 95.4888 23.2748ZM95.2963 16.217C94.9113 16.217 94.6547 16.3453 94.398 16.5378C94.1414 16.7944 94.0131 17.1152 93.9489 17.6285H96.5795C96.5795 17.1794 96.4512 16.8586 96.1946 16.6019C96.0021 16.3453 95.6813 16.217 95.2963 16.217Z" fill="#1F1F1F"/>
</g>
<defs>
<clipPath id="clip0_6003_3365">
<rect width="60.056" height="11.5492" fill="white" transform="translate(40.3091 11.7256)"/>
</clipPath>
</defs>
</svg>
