<svg xmlns="http://www.w3.org/2000/svg" viewBox="0 0 200 200" fill="currentColor">
    <path d="M18.394 118.809h141.998c12.24 0 18.322-5.87 18.322-18.394V18.394C178.714 5.869 172.631 0 160.392 0H18.394C6.155 0 0 5.869 0 18.394v82.02c0 12.526 6.155 18.395 18.394 18.395Zm.215-11.523c-4.939 0-7.086-2.004-7.086-7.086V18.537c0-5.01 2.147-7.014 7.086-7.014h141.569c4.866 0 7.014 2.004 7.014 7.014V100.2c0 5.082-2.148 7.086-7.014 7.086H18.608Zm53.535-15.46c1.646 0 3.006-.572 4.652-1.431l42.3-24.907c2.862-1.718 4.15-3.722 4.15-6.084 0-2.361-1.288-4.366-4.15-6.083l-42.3-24.907c-1.646-.93-3.006-1.503-4.652-1.503-3.292 0-5.94 2.433-5.94 7.014v50.887c0 4.58 2.648 7.014 5.94 7.014ZM53.464 143h71.786c3.221 0 5.797-2.577 5.797-5.726 0-3.22-2.576-5.869-5.797-5.869H53.464c-3.15 0-5.797 2.649-5.797 5.87 0 3.148 2.648 5.725 5.797 5.725Z"/>
</svg>