<svg viewBox="0 0 133 87" fill="currentColor">
    <path d="M56.462 54.346 43.074 19.658a65.95 65.95 0 0 1-1.249-3.6 79.058 79.058 0 0 1-1.25-4.373c-.832 3.212-1.685 5.89-2.558 8.032L24.629 54.346h31.833ZM80.5 86h-8.925c-1.031 0-1.864-.258-2.499-.774a4.757 4.757 0 0 1-1.428-1.963l-7.973-20.587H21.417l-7.974 20.587c-.237.714-.694 1.349-1.368 1.904-.674.555-1.507.833-2.499.833H.651L34.745.737h11.661L80.5 86Zm41.412-27.132c-4.879.159-9.034.545-12.465 1.16-3.431.615-6.228 1.418-8.39 2.41-2.162.992-3.728 2.162-4.7 3.51a7.552 7.552 0 0 0-1.458 4.522c0 1.587.258 2.956.773 4.106.516 1.15 1.22 2.092 2.113 2.826.892.734 1.943 1.27 3.153 1.607 1.21.337 2.51.505 3.897.505 1.865 0 3.57-.188 5.118-.565a19.279 19.279 0 0 0 4.373-1.636 24.658 24.658 0 0 0 3.927-2.558 34.022 34.022 0 0 0 3.659-3.392V58.868ZM87.699 34.235c3.332-3.213 6.922-5.613 10.77-7.2 3.848-1.586 8.112-2.38 12.793-2.38 3.371 0 6.366.556 8.984 1.666 2.618 1.111 4.82 2.658 6.605 4.641 1.785 1.984 3.133 4.384 4.046 7.2.912 2.816 1.368 5.91 1.368 9.282V86h-4.7c-1.032 0-1.825-.169-2.38-.506-.556-.337-.992-1.001-1.31-1.993l-1.19-5.712a59.059 59.059 0 0 1-4.64 3.897 26.56 26.56 0 0 1-4.76 2.856 25.855 25.855 0 0 1-5.326 1.785c-1.884.417-3.976.625-6.277.625-2.34 0-4.542-.327-6.605-.982-2.062-.654-3.857-1.636-5.384-2.945-1.527-1.309-2.737-2.965-3.63-4.968-.892-2.003-1.339-4.373-1.339-7.11 0-2.38.655-4.671 1.964-6.873 1.309-2.201 3.431-4.155 6.366-5.86 2.936-1.706 6.764-3.104 11.484-4.195 4.72-1.091 10.512-1.716 17.374-1.874v-4.701c0-4.68-1.012-8.22-3.035-10.62-2.022-2.4-4.978-3.6-8.865-3.6-2.618 0-4.81.327-6.575.981-1.765.655-3.292 1.389-4.581 2.202a81.8 81.8 0 0 0-3.332 2.201c-.932.655-1.855.982-2.767.982-.714 0-1.329-.188-1.845-.565a5.186 5.186 0 0 1-1.309-1.398L87.7 34.234Z"/>
</svg>